<svg xmlns="http://www.w3.org/2000/svg" width="256" height="256" viewBox="0 0 100 100"><rect width="100" height="100" rx="20" fill="#00038f"></rect><path fill="#ffffff" d="M74.34 21.00L74.34 21.00Q75.34 22.17 75.34 23.43L75.34 23.43Q75.34 23.97 75.29 24.55Q75.25 25.14 75.16 25.59L75.16 25.59Q74.89 26.58 73.98 27.48L73.98 27.48Q73.27 28.02 72.00 28.29L72.00 28.29Q71.38 28.47 70.75 28.56Q70.12 28.65 69.40 28.83L69.40 28.83Q68.77 28.92 68.14 28.92Q67.50 28.92 66.78 28.92L66.78 28.92L62.20 28.92Q60.58 29.01 59 29.01Q57.43 29.01 55.90 29.01L55.90 29.01Q55.99 31.80 55.99 34.99Q55.99 38.19 55.94 42.42Q55.90 46.65 55.85 52.23Q55.81 57.81 55.81 65.19L55.81 65.19L55.81 72.03Q55.81 72.93 55.90 73.38L55.90 73.38Q55.90 73.74 55.90 74.05Q55.90 74.37 55.81 74.82L55.81 74.82Q55.63 75.63 55.54 76.71L55.54 76.71Q55.54 77.16 55.45 77.56Q55.36 77.97 55.18 78.42L55.18 78.42Q54.82 78.78 54.82 78.96L54.82 78.96L54.55 79.50Q54.10 80.40 52.84 81.21L52.84 81.21Q50.86 82.20 48.43 81.66L48.43 81.66Q46.90 81.48 46.09 80.85L46.09 80.85Q45.28 80.04 44.92 79.23L44.92 79.23Q44.38 78.24 44.29 77.34L44.29 77.34Q44.02 76.53 44.02 75.63L44.02 75.63L44.02 29.37Q43.48 29.37 41.77 29.37Q40.06 29.37 38.12 29.32Q36.19 29.28 34.48 29.19Q32.77 29.10 32.14 29.01L32.14 29.01Q31.60 28.92 30.47 28.74Q29.35 28.56 28.63 28.38L28.63 28.38Q26.74 27.84 25.66 26.67L25.66 26.67Q24.67 25.50 24.67 24.06L24.67 24.06Q24.67 23.52 24.67 22.98Q24.67 22.44 24.85 21.99L24.85 21.99Q25.12 20.91 26.29 20.19L26.29 20.19Q26.65 19.92 27.41 19.51Q28.18 19.11 28.90 18.93L28.90 18.93Q29.98 18.57 31.60 18.39L31.60 18.39Q32.32 18.30 33.04 18.30Q33.76 18.30 34.57 18.30L34.57 18.30Q37.72 18.30 40.55 18.30Q43.39 18.30 46.54 18.21L46.54 18.21Q51.76 18.12 56.93 18.16Q62.11 18.21 67.24 18.39L67.24 18.39Q68.41 18.48 69.49 18.66Q70.56 18.84 71.65 19.29L71.65 19.29Q72.46 19.56 73.18 19.96Q73.90 20.37 74.34 21.00Z"></path></svg>